ply
format ascii 1.0
comment Created in Blender version 4.3.2
element vertex 429
property float x
property float y
property float z
property float u
property float v
element face 789
property list uchar uint vertex_indices
end_header
0.5187945 -4.6861305 9.056319 0.880661 -0.68429726
-0.6149154 -5.5283146 8.797186 0.8575594 -0.74975187
-0.93883175 -5.7550564 8.602836 0.8460086 -0.76515293
-1.1655735 -5.917015 8.343701 0.8344578 -0.780554
-1.3599246 -6.0141907 7.9873934 0.8190567 -0.79210484
-1.392316 -6.078974 7.5663004 0.8075059 -0.8036556
-1.3599242 -6.0141907 7.112817 0.79210484 -0.8113562
-1.2627485 -5.8846245 6.691725 0.7767037 -0.8190567
-1.0683981 -5.6902733 6.400199 0.76130265 -0.822907
-0.8092647 -5.366356 6.108674 0.7420513 -0.83060753
0.7131457 -4.167864 6.0438905 0.64964485 -0.8421583
0.3568368 -4.362213 5.84954 0.6727465 -0.83830804
-0.48534724 -4.8804817 5.7847567 0.7150994 -0.82675725
-0.87404776 -5.1720066 5.9467154 0.7343508 -0.822907
-1.2303568 -5.431141 6.2058487 0.75360215 -0.81520647
-1.4894903 -5.6578827 6.5621576 0.7690032 -0.8075059
-1.6514491 -5.787449 7.0156417 0.7844043 -0.79980534
-1.6838409 -5.852232 7.5339084 0.79980534 -0.79210484
-1.6190579 -5.8198414 8.019785 0.8113562 -0.780554
-1.3923162 -5.722666 8.4732685 0.822907 -0.7690032
-1.068399 -5.560707 8.764794 0.83830804 -0.75745237
-0.6796985 -5.366356 8.991536 0.8498589 -0.7420513
-0.29099807 -5.1720066 9.088711 0.86140966 -0.72665024
0.13009395 -4.9128723 9.121103 0.8729605 -0.7035486
0.13009392 -4.6861305 9.218278 0.86525995 -0.69584805
0.55118597 -4.4593887 9.153495 0.8729605 -0.6765967
0.972279 -4.2650394 9.023929 0.880661 -0.6534951
1.328588 -4.1030807 8.732404 0.8883616 -0.6303935
1.5553299 -3.9735126 8.376095 0.89606214 -0.6072919
1.7172887 -3.8439465 7.9873943 0.90376264 -0.58419025
1.7820721 -3.7467709 7.5015182 0.9114632 -0.55723834
1.652505 -3.7467709 7.015643 0.923014 -0.5264362
0.55118597 -4.232647 9.2506695 0.86140966 -0.6688962
1.0046705 -4.005905 9.05632 0.8691102 -0.6457946
0.09770234 -4.426996 9.315454 0.85370916 -0.68814754
1.3609796 -3.8439465 8.797187 0.8768108 -0.62269294
1.6525046 -3.6819878 8.440878 0.8845113 -0.5995913
1.8144634 -3.5524216 7.9873943 0.8883616 -0.5764897
1.8792467 -3.4876385 7.5015182 0.89606214 -0.54953784
1.7820722 -3.4876385 7.015643 0.9076129 -0.5225859
-0.35578126 -4.6213474 9.315454 0.8460086 -0.7073989
-0.32338965 -4.9128723 9.218278 0.85370916 -0.7150994
-0.7444817 -5.1072235 9.088711 0.8421583 -0.7343508
-1.1655736 -5.269182 8.861969 0.83060753 -0.7459016
-1.5218824 -5.3987484 8.538052 0.8190567 -0.76130265
-1.7162325 -5.4635315 8.052176 0.8036556 -0.7728535
-1.813408 -5.431141 7.5339084 0.78825456 -0.780554
-1.7810162 -5.366356 7.0156417 0.7728535 -0.79210484
-1.6190574 -5.2367897 6.5297656 0.76130265 -0.79980534
-1.3275315 -5.074831 6.108674 0.7420513 -0.8036556
-0.93883085 -4.848089 5.817148 0.72665024 -0.8113562
-0.51773876 -4.65374 5.6551895 0.7073989 -0.8190567
-0.06425521 -4.6213474 5.784757 0.6919978 -0.83060753
-0.06425516 -4.426996 5.65519 0.68814754 -0.822907
0.38922933 -4.232647 5.7523656 0.6650459 -0.83060753
0.7779298 -4.0382957 5.946716 0.6457946 -0.83830804
1.1666301 -3.876339 6.2382407 0.61884266 -0.8421583
1.4581549 -3.7791634 6.6269426 0.5918908 -0.8498589
1.652505 -3.7467709 7.015643 0.5649389 -0.8575594
1.5553305 -3.520029 6.5621586 0.58419025 -0.8344578
1.7820722 -3.4876385 7.015643 0.55723834 -0.8421583
1.2314132 -3.6172047 6.1734576 0.61114216 -0.83060753
0.81032133 -3.7467709 5.8819327 0.638094 -0.822907
0.3892294 -3.9087296 5.65519 0.65734535 -0.8190567
-0.09664668 -4.1030807 5.558015 0.680447 -0.81520647
-0.55013025 -4.3298225 5.5904064 0.6996983 -0.8075059
-0.6149143 -3.9735126 5.558015 0.6919978 -0.79980534
-0.09664667 -3.811554 5.5256233 0.6727465 -0.8036556
-1.068398 -4.167864 5.7199736 0.7112492 -0.79210484
-1.0360065 -4.524172 5.752365 0.7189497 -0.8036556
-1.3923155 -4.718523 6.0762825 0.7343508 -0.7959551
-1.7162321 -4.848089 6.497374 0.74975187 -0.78825456
-1.8781909 -4.9776554 7.0156417 0.76515293 -0.780554
-1.9105827 -5.0424404 7.5339084 0.780554 -0.7728535
-1.8134081 -5.074831 8.052176 0.7959551 -0.76130265
-1.5866665 -5.0424404 8.538052 0.8075059 -0.74975187
-1.2303576 -4.945265 8.926753 0.822907 -0.738201
-0.80926573 -4.783306 9.185886 0.8344578 -0.72279996
-0.8740488 -4.4593887 9.218278 0.82675725 -0.7150994
-0.3881728 -4.29743 9.347845 0.8344578 -0.69584805
0.09770232 -4.1354713 9.380237 0.8460086 -0.680447
-1.8781912 -4.6861305 8.084568 0.78825456 -0.74975187
-1.9753667 -4.65374 7.5339084 0.7728535 -0.76130265
-1.6514496 -4.65374 8.602836 0.79980534 -0.738201
-1.2951407 -4.5565643 8.959145 0.81520647 -0.72665024
0.5835784 -3.941122 9.283061 0.85370916 -0.66119564
1.0046705 -3.7791634 9.088712 0.86140966 -0.638094
1.3609796 -3.5848122 8.829578 0.86525995 -0.61884266
1.6525046 -3.455246 8.440878 0.8729605 -0.59574103
1.8468549 -3.3256798 7.9873943 0.8768108 -0.5726394
1.8792466 -3.2608948 7.53391 0.8845113 -0.54568756
1.7820722 -3.2608948 7.015643 0.89221185 -0.51873565
0.5835784 -3.6819878 9.315454 0.8460086 -0.6534951
0.09770231 -3.811554 9.412628 0.83830804 -0.6727465
0.09770231 -3.4876385 9.412628 0.82675725 -0.66119564
-0.42056534 -3.5848122 9.412628 0.81520647 -0.680447
-0.42056534 -3.163721 9.412628 0.8075059 -0.6688962
0.06531075 -3.1313286 9.44502 0.81520647 -0.6534951
-0.938832 -3.2285042 9.283061 0.7959551 -0.68429726
-0.90644044 -3.6495953 9.283061 0.8075059 -0.6919978
-0.42056534 -3.9735126 9.412628 0.82675725 -0.68814754
-0.8740489 -4.1030807 9.283061 0.81520647 -0.7035486
-1.3599249 -3.7467709 9.023928 0.7959551 -0.7073989
-1.3275324 -4.2002544 9.023928 0.8075059 -0.7189497
-1.7162328 -3.7467709 8.635227 0.7844043 -0.7189497
-1.6838412 -4.232647 8.635227 0.79210484 -0.7305005
-1.9429753 -4.2650394 8.11696 0.780554 -0.7420513
-1.9429753 -3.7467709 8.11696 0.7690032 -0.7305005
-2.0077581 -4.2002544 7.5663 0.76515293 -0.74975187
-2.0077581 -3.7143803 7.5663 0.75745237 -0.738201
-1.3599248 -3.2608948 8.991536 0.7844043 -0.69584805
-1.7162327 -3.2932873 8.602836 0.7728535 -0.7073989
-1.9105828 -3.2932873 8.11696 0.76130265 -0.7189497
-2.0077581 -3.2608948 7.5663 0.7459016 -0.7305005
-1.9429749 -4.1354713 6.983249 0.74975187 -0.76130265
-1.9753665 -3.6819878 6.983249 0.7420513 -0.74975187
-1.781016 -4.0382957 6.43259 0.7343508 -0.7690032
-1.7810161 -3.6172047 6.4649825 0.72665024 -0.75745237
-1.9429749 -3.2285042 6.983249 0.7343508 -0.738201
-1.7810161 -3.1961117 6.4649825 0.7189497 -0.74975187
-1.48949 -3.941122 6.0114985 0.7189497 -0.7767037
-1.48949 -3.520029 6.0114985 0.7112492 -0.76515293
-1.1007894 -3.811554 5.687582 0.7035486 -0.7844043
-1.1007894 -3.4228535 5.687582 0.69584805 -0.7728535
-1.48949 -3.1313286 6.04389 0.7035486 -0.75745237
-1.1007895 -3.034153 5.7199736 0.68814754 -0.76130265
-0.64730585 -3.6495953 5.5256233 0.68429726 -0.78825456
-0.64730585 -3.2932873 5.5256233 0.680447 -0.7767037
-0.1290382 -3.4876385 5.493232 0.6688962 -0.79210484
-0.1290382 -3.163721 5.493232 0.66119564 -0.7844043
-0.6796974 -2.9369793 5.5256233 0.6727465 -0.7690032
-0.16142975 -2.8398037 5.493232 0.65734535 -0.7728535
0.3892294 -3.034153 5.590407 0.6419443 -0.78825456
0.3892294 -2.742628 5.590407 0.638094 -0.7767037
0.8751044 -2.9369793 5.8171487 0.61884266 -0.79210484
0.8427129 -2.677845 5.8171487 0.6149924 -0.780554
1.2638048 -2.8721943 6.141066 0.59574103 -0.7959551
1.2638048 -2.613062 6.141066 0.59574103 -0.7844043
1.5877221 -2.8398037 6.5621586 0.5726394 -0.8036556
1.5553305 -2.5806694 6.5621586 0.5726394 -0.79210484
1.7496806 -2.5806694 7.015643 0.54568756 -0.7959551
1.7820722 -2.8074112 7.0480347 0.54568756 -0.8075059
1.5877221 -3.034153 6.5621586 0.5764897 -0.8113562
1.8144637 -3.034153 7.0480347 0.54568756 -0.8190567
1.2638048 -3.098938 6.1734576 0.5995913 -0.8075059
0.8751044 -3.1961117 5.8171487 0.6265432 -0.8036556
0.3568369 -3.3256798 5.590407 0.6457946 -0.7959551
0.3568369 -2.4187107 5.6227984 0.6342437 -0.76515293
-0.16142976 -2.4834938 5.5256233 0.6534951 -0.76130265
-0.1614298 -2.1595783 5.5904064 0.64964485 -0.74975187
-0.67969745 -2.2243614 5.622798 0.6650459 -0.7459016
-0.6796974 -2.5806694 5.558015 0.6688962 -0.75745237
-0.67969745 -1.83566 5.687582 0.66119564 -0.7343508
-0.19382136 -1.8032684 5.6551895 0.6457946 -0.738201
-1.1007895 -2.2891445 5.817148 0.680447 -0.7420513
-1.1331811 -2.677845 5.752365 0.68429726 -0.75360215
-1.4570986 -2.3539276 6.108674 0.6919978 -0.7343508
-1.424707 -1.9652271 6.173457 0.68814754 -0.72665024
-1.1007895 -1.900444 5.8819323 0.6727465 -0.7305005
-1.4894902 -2.742628 6.0762825 0.6996983 -0.7459016
-1.7486246 -2.38632 6.5297656 0.7035486 -0.72665024
-1.7810161 -2.7750206 6.497374 0.7112492 -0.738201
-1.9105824 -2.4187107 7.0156417 0.7189497 -0.7189497
-1.8457993 -1.9976187 7.048033 0.7112492 -0.7112492
-1.6838405 -1.9976187 6.5945487 0.6996983 -0.7189497
-1.9429749 -2.8398037 7.0156417 0.72665024 -0.7305005
-1.9429752 -2.4511032 7.5663 0.7305005 -0.7112492
-1.9753667 -2.8398037 7.5663 0.738201 -0.7189497
-1.8457997 -2.4511032 8.11696 0.7420513 -0.6996983
-1.9105828 -2.8721943 8.11696 0.75360215 -0.7073989
-1.6838411 -2.8398037 8.602836 0.76515293 -0.6996983
-1.6514496 -2.4511032 8.570444 0.75360215 -0.68814754
-1.3599248 -2.8398037 8.991536 0.7728535 -0.68814754
-1.3275323 -2.4187107 8.959145 0.76515293 -0.6765967
-0.9388319 -2.8074112 9.2506695 0.7844043 -0.6765967
-0.9064404 -2.38632 9.218278 0.7728535 -0.6650459
-0.4529569 -2.7750206 9.412628 0.7959551 -0.66119564
-0.45295686 -2.3539276 9.380237 0.7844043 -0.6534951
0.06531075 -2.742628 9.44502 0.8036556 -0.6457946
0.03291921 -2.321535 9.412628 0.79210484 -0.638094
-1.7810166 -2.0624027 8.084568 0.7343508 -0.6919978
-1.8781911 -2.0300102 7.5663 0.72279996 -0.6996983
-1.7162325 -1.6413097 8.052176 0.72665024 -0.68429726
-1.7810165 -1.6413097 7.5663 0.7150994 -0.6919978
-1.5866663 -1.2526093 8.019785 0.7189497 -0.6727465
-1.6514493 -1.2526093 7.5663 0.7073989 -0.68429726
-1.7486247 -1.6089182 7.080425 0.7035486 -0.6996983
-1.6514491 -1.2526093 7.1128163 0.69584805 -0.6919978
-1.5218818 -1.2202177 6.7241163 0.68814754 -0.6996983
-1.6190574 -1.6089182 6.626941 0.6919978 -0.7073989
-1.3275315 -1.2202177 6.3678074 0.6765967 -0.7035486
-1.3923155 -1.5765266 6.2706327 0.680447 -0.7150994
-1.068398 -1.5441351 5.979107 0.6688962 -0.7189497
-1.003615 -1.1554346 6.108674 0.6650459 -0.7073989
-0.67969745 -1.479352 5.7847567 0.65734535 -0.72279996
-0.64730597 -1.1230431 5.914324 0.6534951 -0.7112492
-0.19382139 -1.414568 5.752365 0.6419443 -0.72665024
-0.22621393 -1.0906515 5.8819323 0.638094 -0.7150994
0.25966218 -1.3821764 5.8171487 0.6265432 -0.7305005
0.22727059 -1.058259 5.9143243 0.62269294 -0.7189497
0.6807541 -1.3497849 6.011499 0.6072919 -0.7305005
0.615971 -1.0258675 6.1086745 0.6072919 -0.7189497
1.037063 -1.3173933 6.270633 0.58804053 -0.7305005
0.9398883 -1.0258675 6.367808 0.5918908 -0.7189497
1.2314131 -1.0258675 6.6917253 0.5726394 -0.7150994
1.3285887 -1.3173933 6.626942 0.5687892 -0.7305005
1.3933717 -1.0258675 7.0804257 0.54953784 -0.7112492
1.5229388 -1.3173933 7.0480347 0.54568756 -0.72665024
0.29205376 -1.7384853 5.719974 0.6265432 -0.7420513
0.7455373 -1.6737022 5.9143243 0.6072919 -0.7459016
1.1342386 -1.6413097 6.205849 0.58804053 -0.7459016
1.4257634 -1.6413097 6.59455 0.5687892 -0.7459016
1.6201135 -1.6737022 7.015643 0.54568756 -0.7459016
1.4905465 -1.9652271 6.5621586 0.5687892 -0.76130265
1.6848966 -1.9976187 7.015643 0.54568756 -0.76130265
1.522939 -2.2891445 6.5621586 0.5687892 -0.7767037
1.7172891 -2.2891445 7.015643 0.54568756 -0.7767037
1.1666301 -1.9976187 6.1734576 0.5918908 -0.75745237
1.2314132 -2.321535 6.141066 0.5918908 -0.7728535
0.32444534 -2.0947933 5.65519 0.6303935 -0.75360215
0.7779298 -2.0300102 5.8819327 0.61114216 -0.75745237
0.8427129 -2.3539276 5.84954 0.6149924 -0.7690032
-0.3881727 -0.86390877 8.991536 0.7420513 -0.6265432
-0.71209 -0.86390877 8.861969 0.7343508 -0.638094
-0.64730686 -0.6047754 8.70001 0.72665024 -0.6303935
-0.35578108 -0.6047754 8.829577 0.7305005 -0.62269294
-1.0036159 -0.89630127 8.667619 0.72665024 -0.6457946
-0.90644014 -0.6047754 8.50566 0.7189497 -0.6419443
-1.2627491 -0.89630127 8.343701 0.7189497 -0.6534951
-1.1331818 -0.637167 8.246527 0.7112492 -0.64964485
-1.4247077 -0.89630127 7.9873934 0.7112492 -0.6650459
-1.262749 -0.637167 7.9226093 0.7035486 -0.65734535
-1.3275319 -0.637167 7.5663004 0.69584805 -0.6650459
-1.4894906 -0.89630127 7.5663004 0.6996983 -0.6727465
-1.3275318 -0.637167 7.2099924 0.68429726 -0.6727465
-1.4894905 -0.89630127 7.1776 0.6919978 -0.680447
-1.230357 -0.6047754 6.9184666 0.6765967 -0.680447
-1.3923157 -0.86390877 6.821292 0.680447 -0.68814754
-1.1007898 -0.6047754 6.6269417 0.6688962 -0.68429726
-1.1979654 -0.86390877 6.4973745 0.6727465 -0.6919978
-0.8416564 -0.6047754 6.400199 0.65734535 -0.68814754
-0.938831 -0.8315172 6.2382402 0.66119564 -0.6996983
-0.582522 -0.8315172 6.0762825 0.64964485 -0.7035486
-0.5501305 -0.5723839 6.2706327 0.6457946 -0.6919978
-0.19382147 -0.7991257 6.04389 0.6342437 -0.7035486
-0.19382153 -0.5723839 6.2058487 0.6342437 -0.69584805
0.194879 -0.7667341 6.076283 0.62269294 -0.7073989
0.16248643 -0.53999233 6.2382407 0.61884266 -0.69584805
0.5511869 -0.7667341 6.2382407 0.6072919 -0.7073989
0.4864038 -0.53999233 6.367808 0.6072919 -0.69584805
0.87510425 -0.7343426 6.4649835 0.5918908 -0.7035486
0.77792954 -0.53999233 6.562158 0.5918908 -0.69584805
1.101846 -0.7343426 6.7565084 0.5726394 -0.7035486
1.0046712 -0.53999233 6.853684 0.5764897 -0.6919978
1.2638046 -0.7343426 7.1128173 0.55723834 -0.69584805
1.1342382 -0.53999233 7.1776004 0.5610886 -0.68429726
-0.74448085 -0.41042516 6.5621576 0.6534951 -0.680447
-0.93883115 -0.41042516 6.756508 0.66119564 -0.6765967
-1.0683984 -0.41042516 6.9832497 0.6727465 -0.6727465
-1.1331816 -0.4428167 7.2747755 0.680447 -0.6650459
0.42162064 -0.3780336 6.5297666 0.6072919 -0.68814754
0.13009484 -0.3780336 6.4001994 0.61884266 -0.68814754
-0.16143005 -0.3780336 6.3678074 0.6303935 -0.68429726
-0.48534745 -0.41042516 6.4325905 0.6419443 -0.68429726
-1.1331817 -0.4428167 7.5663004 0.68814754 -0.65734535
-1.1007901 -0.41042516 7.857826 0.69584805 -0.64964485
-0.9712231 -0.41042516 8.11696 0.7035486 -0.6419443
-0.77687293 -0.41042516 8.343701 0.7112492 -0.6342437
-0.5825228 -0.41042516 8.538052 0.7189497 -0.6265432
-0.32338947 -0.41042516 8.635227 0.72279996 -0.61884266
-0.031864658 -0.6047754 8.861969 0.738201 -0.61114216
-0.031864595 -0.41042516 8.667619 0.72665024 -0.6072919
0.29205275 -0.6047754 8.797186 0.7420513 -0.5995913
0.32444426 -0.8315172 8.926753 0.74975187 -0.6034416
-0.031864703 -0.86390877 8.991536 0.7459016 -0.61884266
0.6483617 -0.8315172 8.797186 0.75360215 -0.5918908
0.58357865 -0.6047754 8.667619 0.7459016 -0.58804053
0.9398876 -0.8315172 8.570445 0.75745237 -0.58033997
0.8751036 -0.5723839 8.473269 0.7459016 -0.5764897
1.1990211 -0.7991257 8.246528 0.75745237 -0.5649389
1.069454 -0.5723839 8.181745 0.74975187 -0.5610886
1.3285884 -0.7667341 7.8902183 0.75745237 -0.54953784
1.1666297 -0.53999233 7.8578267 0.7459016 -0.54953784
1.3285885 -0.7667341 7.501518 0.75745237 -0.5302865
1.1990213 -0.53999233 7.501518 0.7420513 -0.5341367
1.2638046 -0.7343426 7.1128173 0.74975187 -0.5110351
1.1342382 -0.53999233 7.1776004 0.738201 -0.51873565
1.0370626 -0.34564206 7.501518 0.7305005 -0.537987
1.0046711 -0.34564206 7.209993 0.72665024 -0.5225859
1.0370625 -0.3780336 7.825435 0.7343508 -0.54953784
0.93988776 -0.3780336 8.084569 0.738201 -0.5610886
0.7455365 -0.3780336 8.343702 0.738201 -0.5764897
0.51879466 -0.41042516 8.50566 0.7343508 -0.58804053
0.25966126 -0.41042516 8.635227 0.7305005 -0.5995913
0.8427124 -0.24846646 7.274776 0.7150994 -0.5302865
0.8751039 -0.24846646 7.5339093 0.72279996 -0.5418373
0.87510383 -0.24846646 7.760651 0.72665024 -0.55338806
0.77792907 -0.24846646 8.019786 0.7305005 -0.5610886
0.64836186 -0.24846646 8.214135 0.72665024 -0.5726394
0.4540116 -0.24846646 8.343701 0.72665024 -0.58419025
0.22726977 -0.280858 8.440877 0.72279996 -0.59574103
-0.031864543 -0.280858 8.50566 0.7189497 -0.6034416
-0.2586063 -0.280858 8.4732685 0.7150994 -0.6149924
-0.48534808 -0.280858 8.376094 0.7112492 -0.62269294
-0.6796983 -0.280858 8.214135 0.7035486 -0.6303935
-0.8092654 -0.280858 8.019785 0.69584805 -0.638094
-0.93883145 -0.280858 7.793043 0.68814754 -0.6419443
-0.97122294 -0.280858 7.5663004 0.680447 -0.64964485
-0.9712229 -0.280858 7.307167 0.6765967 -0.65734535
-0.9064397 -0.280858 7.0804253 0.6688962 -0.6650459
-0.80926496 -0.280858 6.886075 0.66119564 -0.6688962
-0.6149147 -0.280858 6.7241163 0.64964485 -0.6727465
-0.3881719 -0.280858 6.594549 0.638094 -0.6765967
-0.12903856 -0.280858 6.5621576 0.6303935 -0.6765967
0.13009478 -0.24846646 6.562158 0.61884266 -0.680447
0.35683653 -0.24846646 6.6917253 0.6072919 -0.6765967
0.68075395 -0.3780336 6.6917253 0.5918908 -0.68429726
0.87510407 -0.34564206 6.918467 0.58033997 -0.680447
1.0046711 -0.34564206 7.209993 0.5649389 -0.6727465
0.58357924 -0.24846646 6.8212924 0.59574103 -0.6765967
0.7455369 -0.24846646 7.0156426 0.58419025 -0.6727465
0.8427124 -0.24846646 7.274776 0.5726394 -0.6650459
0.6159707 -0.18368337 7.1128173 0.58804053 -0.6650459
0.71314526 -0.18368337 7.3071675 0.5764897 -0.65734535
0.00052827504 -0.18368337 7.5339093 0.6072919 -0.6342437
0.48640358 -0.18368337 6.9508586 0.59574103 -0.6688962
0.2920534 -0.18368337 6.8212924 0.6072919 -0.6727465
0.097703174 -0.18368337 6.7565084 0.6149924 -0.6727465
-0.1290386 -0.18368337 6.7241163 0.6265432 -0.6688962
-0.32338887 -0.18368337 6.756508 0.638094 -0.6650459
-0.5177391 -0.18368337 6.8536835 0.6457946 -0.6650459
0.00052827504 -0.18368337 7.5339093 0.6419443 -0.62269294
-0.6796979 -0.18368337 6.9832497 0.65734535 -0.66119564
-0.7768726 -0.18368337 7.1452084 0.6650459 -0.65734535
-0.80926514 -0.18368337 7.3395586 0.6688962 -0.6534951
-0.8092652 -0.18368337 7.5663004 0.6765967 -0.6457946
-0.77687275 -0.18368337 7.7606506 0.68429726 -0.638094
-0.67969817 -0.18368337 7.955001 0.6919978 -0.6303935
0.00052827504 -0.18368337 7.5339093 0.6727465 -0.59574103
-0.5501311 -0.18368337 8.11696 0.6996983 -0.6265432
-0.42056492 -0.18368337 8.214135 0.7035486 -0.61884266
-0.22621472 -0.18368337 8.31131 0.7073989 -0.61114216
-0.03186448 -0.18368337 8.31131 0.7112492 -0.6034416
0.19487827 -0.18368337 8.31131 0.7150994 -0.5918908
0.35683605 -0.18368337 8.214135 0.7189497 -0.58033997
0.00052827504 -0.18368337 7.5339093 0.680447 -0.5649389
0.5187948 -0.18368337 8.084568 0.7189497 -0.5726394
0.648362 -0.18368337 7.92261 0.72279996 -0.5610886
0.7455367 -0.18368337 7.7282596 0.7189497 -0.55338806
0.74553674 -0.18368337 7.5339093 0.7150994 -0.5418373
0.71314526 -0.18368337 7.3071675 0.7073989 -0.5341367
-0.031864755 -1.1878262 9.153495 0.75745237 -0.62269294
-0.42056522 -1.1878262 9.121103 0.74975187 -0.6342437
-0.45295683 -1.5441351 9.2506695 0.76130265 -0.638094
-0.8092657 -1.2202177 8.991536 0.7459016 -0.6457946
-0.8740488 -1.5765266 9.088711 0.75360215 -0.64964485
-1.133182 -1.2202177 8.764794 0.738201 -0.6534951
-1.2303576 -1.6089182 8.861969 0.7459016 -0.66119564
-1.3923162 -1.2526093 8.440877 0.7305005 -0.6650459
-1.5218824 -1.6413097 8.50566 0.738201 -0.6727465
0.0005277156 -1.5441351 9.2506695 0.7690032 -0.6265432
0.38922825 -1.1878262 9.088711 0.76130265 -0.61114216
0.45401132 -1.5117435 9.185886 0.7767037 -0.6149924
0.7455363 -1.1554346 8.8943615 0.7690032 -0.59574103
0.84271187 -1.479352 8.991537 0.780554 -0.5995913
1.1342378 -1.4469595 8.700011 0.7844043 -0.58419025
1.0370622 -1.1230431 8.635228 0.7690032 -0.58033997
1.3933712 -1.414568 8.376095 0.7844043 -0.5687892
1.2961956 -1.0906515 8.311311 0.7728535 -0.5649389
1.55533 -1.3821764 7.955002 0.78825456 -0.54953784
1.4257629 -1.058259 7.9226103 0.7728535 -0.54568756
1.5877218 -1.3497849 7.5015182 0.7844043 -0.5264362
1.4581547 -1.0258675 7.5015182 0.7690032 -0.5302865
1.5229388 -1.3173933 7.0480347 0.7844043 -0.5071848
1.3933717 -1.0258675 7.0804257 0.76515293 -0.5071848
1.6848965 -1.6737022 7.5015182 0.8036556 -0.5302865
1.6525047 -1.7060938 7.955002 0.8036556 -0.54953784
1.4905459 -1.7384853 8.408486 0.79980534 -0.5687892
1.2314124 -1.8032684 8.764795 0.7959551 -0.58804053
1.5553299 -2.0947933 8.408486 0.81520647 -0.5726394
1.2961955 -2.1595783 8.797187 0.8113562 -0.5918908
1.620113 -2.4187107 8.408486 0.82675725 -0.5764897
1.3609796 -2.4834938 8.829578 0.822907 -0.59574103
0.97227895 -2.2243614 9.088712 0.8075059 -0.6072919
1.0046705 -2.613062 9.121104 0.8190567 -0.6149924
0.5511859 -2.2891445 9.315454 0.79980534 -0.62269294
0.5511859 -2.677845 9.347845 0.8113562 -0.6303935
0.90749496 -1.8680525 9.023929 0.79210484 -0.6034416
0.48640284 -1.900444 9.2506695 0.78825456 -0.61884266
1.7496803 -2.3539276 7.9873943 0.83060753 -0.55338806
1.7172887 -2.0300102 7.9873943 0.8190567 -0.55338806
1.8144636 -2.321535 7.5015182 0.8344578 -0.5341367
1.7496805 -1.9976187 7.5015182 0.8190567 -0.5302865
0.03291923 -1.9328356 9.347845 0.780554 -0.6342437
-0.45295686 -1.9328356 9.315454 0.7728535 -0.6457946
-0.9064404 -1.9652271 9.185886 0.76515293 -0.65734535
-1.2951407 -1.9976187 8.926753 0.75745237 -0.6688962
-1.5866665 -2.0300102 8.570444 0.7459016 -0.680447
1.0046705 -3.2608948 9.121104 0.8421583 -0.6265432
1.3933711 -3.098938 8.829578 0.8460086 -0.6072919
1.3609796 -3.3256798 8.829578 0.8575594 -0.61114216
1.0046705 -3.520029 9.121104 0.8498589 -0.6342437
1.6525046 -3.1961117 8.440878 0.86140966 -0.58804053
1.6525046 -2.96937 8.440878 0.85370916 -0.58419025
0.5835784 -3.3904629 9.315454 0.8344578 -0.6457946
1.3933711 -2.8398037 8.829578 0.83830804 -0.5995913
1.6525046 -2.7102356 8.440878 0.8421583 -0.58033997
1.8144634 -2.9045868 7.9873943 0.8575594 -0.5610886
1.8144634 -2.6454525 7.9873943 0.8460086 -0.55723834
1.8792466 -2.8398037 7.53391 0.86140966 -0.537987
1.8468552 -2.613062 7.5015182 0.8498589 -0.5341367
1.8144634 -3.098938 7.9873943 0.86525995 -0.5649389
1.8792466 -3.034153 7.53391 0.8729605 -0.5418373
1.0046705 -2.96937 9.153496 0.83060753 -0.61884266
0.5835784 -3.0665455 9.347845 0.82675725 -0.638094
1.7820722 -2.8074112 7.0480347 0.8691102 -0.5110351
1.7496806 -2.5806694 7.015643 0.85370916 -0.5071848
1.8144637 -3.034153 7.0480347 0.880661 -0.51488537
1.7172891 -2.2891445 7.015643 0.83830804 -0.5071848
1.6848966 -1.9976187 7.015643 0.8190567 -0.5033346
1.6201135 -1.6737022 7.015643 0.8036556 -0.5033346
-1.7486246 -4.4593887 6.4649825 0.7420513 -0.780554
-1.9105824 -4.5565643 6.983249 0.75745237 -0.7690032
-1.4570985 -4.3298225 6.04389 0.72665024 -0.78825456
0.3892294 -3.6172047 5.6227984 0.6534951 -0.8075059
0.8427129 -3.4876385 5.84954 0.6303935 -0.81520647
1.2638048 -3.3580704 6.1734576 0.6072919 -0.8190567
1.5877221 -3.2932873 6.5621586 0.58033997 -0.822907
1.7820722 -3.2608948 7.015643 0.54953784 -0.83060753
3 9 13 14
3 8 14 15
3 7 8 15
3 7 15 16
3 6 7 16
3 16 17 6
3 17 5 6
3 5 17 18
3 4 5 18
3 3 4 18
3 19 3 18
3 2 3 19
3 20 2 19
3 1 2 20
3 21 1 20
3 23 24 0
3 24 25 0
3 25 32 26
3 32 33 26
3 26 33 27
3 34 32 25
3 24 34 25
3 27 35 28
3 33 35 27
3 35 36 28
3 28 36 29
3 36 37 29
3 29 37 30
3 37 38 30
3 39 31 30
3 38 39 30
3 40 34 24
3 41 40 24
3 41 24 23
3 22 41 23
3 42 41 22
3 21 42 22
3 43 42 21
3 20 43 21
3 44 43 20
3 19 44 20
3 45 44 19
3 18 45 19
3 45 18 46
3 18 17 46
3 46 17 16
3 47 46 16
3 47 16 15
3 48 47 15
3 48 15 14
3 49 48 14
3 49 14 13
3 50 49 13
3 50 13 12
3 51 50 12
3 51 12 52
3 53 51 52
3 53 52 11
3 54 53 11
3 54 11 10
3 55 54 10
3 59 57 58
3 60 59 58
3 61 56 57
3 59 61 57
3 62 55 56
3 61 62 56
3 63 54 55
3 62 63 55
3 64 53 54
3 63 64 54
3 64 65 53
3 65 64 66
3 64 67 66
3 64 63 67
3 65 66 68
3 69 65 68
3 65 69 51
3 69 50 51
3 69 70 50
3 70 49 50
3 70 71 49
3 71 48 49
3 71 72 48
3 72 47 48
3 72 73 47
3 73 46 47
3 73 74 46
3 74 45 46
3 45 74 44
3 74 75 44
3 44 75 43
3 75 76 43
3 43 76 42
3 76 77 42
3 42 77 41
3 77 40 41
3 77 78 40
3 78 79 40
3 40 79 34
3 79 80 34
3 74 73 81
3 74 81 75
3 73 82 81
3 75 83 76
3 81 83 75
3 83 84 76
3 84 78 77
3 76 84 77
3 34 80 32
3 80 85 32
3 32 85 33
3 85 86 33
3 33 86 35
3 86 87 35
3 35 87 36
3 87 88 36
3 36 88 37
3 88 89 37
3 37 89 38
3 89 90 38
3 73 72 82
3 38 90 91
3 39 38 91
3 85 92 86
3 93 92 85
3 92 93 94
3 95 94 93
3 94 95 96
3 97 94 96
3 96 95 98
3 95 99 98
3 99 95 100
3 100 95 93
3 101 99 100
3 102 99 101
3 103 102 101
3 104 102 103
3 105 104 103
3 105 106 104
3 106 107 104
3 106 108 107
3 108 109 107
3 99 102 110
3 98 99 110
3 102 104 111
3 110 102 111
3 111 104 107
3 112 111 107
3 112 107 109
3 113 112 109
3 109 108 114
3 115 109 114
3 113 109 115
3 114 116 115
3 116 117 115
3 118 115 117
3 118 113 115
3 119 118 117
3 116 120 117
3 120 121 117
3 117 121 119
3 121 120 122
3 123 121 122
3 124 121 123
3 121 124 119
3 125 124 123
3 122 126 123
3 126 127 123
3 123 127 125
3 127 126 128
3 129 127 128
3 130 127 129
3 127 130 125
3 131 130 129
3 129 132 131
3 132 133 131
3 133 132 134
3 135 133 134
3 135 134 136
3 137 135 136
3 137 136 138
3 139 137 138
3 140 139 138
3 141 140 138
3 138 142 141
3 142 138 136
3 142 143 141
3 144 142 136
3 144 136 134
3 145 144 134
3 145 134 132
3 146 145 132
3 146 132 129
3 128 146 129
3 133 135 147
3 133 147 148
3 148 147 149
3 149 150 148
3 150 151 148
3 152 150 149
3 153 152 149
3 151 150 154
3 155 151 154
3 154 156 155
3 157 156 154
3 158 157 154
3 150 152 158
3 154 150 158
3 156 159 155
3 159 156 160
3 161 159 160
3 161 160 162
3 163 162 160
3 164 163 160
3 156 157 164
3 160 156 164
3 165 161 162
3 162 166 165
3 166 167 165
3 167 166 168
3 169 167 168
3 169 168 170
3 168 171 170
3 170 171 172
3 171 173 172
3 172 173 174
3 173 175 174
3 174 175 176
3 175 177 176
3 176 177 178
3 177 179 178
3 168 166 180
3 168 180 171
3 166 181 180
3 182 180 181
3 183 182 181
3 182 183 184
3 183 185 184
3 183 186 185
3 186 187 185
3 187 186 188
3 186 189 188
3 188 189 190
3 189 191 190
3 191 192 190
3 192 193 190
3 192 194 193
3 194 195 193
3 194 196 195
3 196 197 195
3 196 198 197
3 198 199 197
3 198 200 199
3 200 201 199
3 200 202 201
3 202 203 201
3 203 202 204
3 202 205 204
3 204 205 206
3 205 207 206
3 152 194 192
3 153 196 194
3 152 153 194
3 208 198 196
3 153 208 196
3 209 200 198
3 208 209 198
3 210 202 200
3 209 210 200
3 205 202 210
3 211 205 210
3 207 205 211
3 212 207 211
3 212 211 213
3 214 212 213
3 214 213 215
3 216 214 215
3 211 210 217
3 213 211 217
3 210 209 217
3 218 215 213
3 217 218 213
3 208 153 219
3 153 149 219
3 208 219 220
3 209 208 220
3 209 220 217
3 218 217 220
3 221 218 220
3 221 220 219
3 147 221 219
3 147 219 149
3 135 221 147
3 137 218 221
3 135 137 221
3 218 137 215
3 137 139 215
3 215 139 216
3 139 140 216
3 65 51 53
3 222 223 224
3 225 222 224
3 224 223 226
3 227 224 226
3 227 226 228
3 229 227 228
3 229 228 230
3 231 229 230
3 231 230 232
3 230 233 232
3 232 233 234
3 233 235 234
3 234 235 236
3 235 237 236
3 236 237 238
3 237 239 238
3 238 239 240
3 239 241 240
3 240 241 242
3 243 240 242
3 243 242 244
3 245 243 244
3 245 244 246
3 247 245 246
3 247 246 248
3 249 247 248
3 249 248 250
3 251 249 250
3 251 250 252
3 253 251 252
3 253 252 254
3 255 253 254
3 240 243 256
3 256 257 240
3 257 238 240
3 238 257 236
3 257 258 236
3 236 258 234
3 258 259 234
3 249 251 260
3 249 260 261
3 247 249 261
3 247 261 262
3 245 247 262
3 245 262 263
3 243 263 256
3 243 245 263
3 234 259 232
3 259 264 232
3 232 264 231
3 264 265 231
3 231 265 266
3 229 231 266
3 229 266 267
3 227 229 267
3 227 267 268
3 224 227 268
3 268 269 224
3 269 225 224
3 225 269 270
3 269 271 270
3 270 271 272
3 272 273 270
3 273 274 270
3 270 274 225
3 275 273 272
3 276 275 272
3 277 275 276
3 278 277 276
3 279 277 278
3 280 279 278
3 281 279 280
3 282 281 280
3 283 281 282
3 284 283 282
3 285 283 284
3 286 285 284
3 284 287 286
3 287 288 286
3 289 287 284
3 282 289 284
3 290 289 282
3 280 290 282
3 291 290 280
3 278 291 280
3 292 291 278
3 276 292 278
3 293 292 276
3 272 293 276
3 271 293 272
3 294 288 287
3 295 294 287
3 287 289 296
3 295 287 296
3 289 290 297
3 296 289 297
3 290 291 298
3 297 290 298
3 291 292 299
3 298 291 299
3 292 293 300
3 299 292 300
3 293 271 301
3 300 293 301
3 301 271 302
3 271 269 302
3 302 269 268
3 303 302 268
3 303 268 267
3 304 303 267
3 304 267 266
3 305 304 266
3 305 266 265
3 306 305 265
3 306 265 307
3 265 264 307
3 307 264 308
3 264 259 308
3 308 259 309
3 259 258 309
3 309 258 310
3 258 257 310
3 310 257 256
3 311 310 256
3 311 256 263
3 312 311 263
3 312 263 262
3 313 312 262
3 313 262 261
3 314 313 261
3 314 261 260
3 315 314 260
3 315 260 316
3 251 316 260
3 251 253 316
3 253 317 316
3 253 255 317
3 255 318 317
3 319 315 316
3 319 316 317
3 320 319 317
3 320 317 318
3 321 320 318
3 320 321 322
3 321 323 322
3 323 324 322
3 325 322 324
3 320 322 325
3 319 320 325
3 326 325 324
3 319 325 326
3 315 319 326
3 327 326 324
3 315 326 327
3 328 327 324
3 328 324 329
3 314 327 328
3 314 315 327
3 313 314 328
3 313 328 329
3 312 313 329
3 312 329 330
3 329 331 330
3 332 330 331
3 333 332 331
3 333 331 334
3 334 331 335
3 336 335 331
3 330 332 311
3 311 312 330
3 332 310 311
3 332 333 309
3 310 332 309
3 333 334 308
3 309 333 308
3 334 335 307
3 308 334 307
3 335 336 306
3 307 335 306
3 336 337 306
3 337 336 338
3 339 337 338
3 340 339 338
3 341 340 338
3 342 341 338
3 342 338 343
3 337 305 306
3 305 337 339
3 304 305 339
3 304 339 340
3 303 304 340
3 303 340 341
3 302 303 341
3 341 342 301
3 302 341 301
3 342 343 300
3 301 342 300
3 300 343 299
3 343 344 299
3 343 345 344
3 344 345 346
3 346 345 347
3 348 347 345
3 348 345 349
3 349 345 350
3 344 346 298
3 299 344 298
3 346 347 297
3 298 346 297
3 347 348 296
3 297 347 296
3 348 349 295
3 296 348 295
3 349 350 295
3 350 294 295
3 222 274 351
3 352 222 351
3 353 352 351
3 352 353 354
3 353 355 354
3 354 355 356
3 355 357 356
3 356 357 358
3 357 359 358
3 360 353 351
3 360 351 361
3 362 360 361
3 362 361 363
3 364 362 363
3 365 364 363
3 366 365 363
3 367 365 366
3 368 367 366
3 369 367 368
3 370 369 368
3 371 369 370
3 372 371 370
3 373 371 372
3 374 373 372
3 371 375 369
3 375 376 369
3 369 376 367
3 367 377 365
3 376 377 367
3 377 378 365
3 365 378 364
3 378 377 379
3 380 378 379
3 380 379 381
3 382 380 381
3 383 380 382
3 384 383 382
3 385 383 384
3 386 385 384
3 387 378 380
3 383 387 380
3 388 387 383
3 385 388 383
3 381 379 389
3 379 390 389
3 377 376 390
3 379 377 390
3 389 390 391
3 390 392 391
3 378 387 364
3 387 388 364
3 388 362 364
3 390 376 392
3 376 375 392
3 388 393 362
3 393 388 385
3 393 360 362
3 393 394 360
3 394 353 360
3 353 394 355
3 394 395 355
3 355 395 357
3 395 396 357
3 357 396 359
3 396 397 359
3 359 397 182
3 359 182 184
3 358 359 184
3 397 180 182
3 180 397 171
3 397 396 173
3 171 397 173
3 396 395 175
3 173 396 175
3 395 394 177
3 175 395 177
3 177 394 179
3 394 393 179
3 179 393 385
3 385 386 179
3 386 178 179
3 228 358 184
3 230 228 184
3 233 230 184
3 185 233 184
3 235 233 185
3 187 235 185
3 237 235 187
3 188 237 187
3 239 237 188
3 190 239 188
3 239 190 193
3 241 239 193
3 193 195 241
3 195 242 241
3 195 197 242
3 197 244 242
3 197 199 244
3 199 246 244
3 199 201 246
3 201 248 246
3 201 203 248
3 203 250 248
3 203 204 250
3 204 252 250
3 254 252 204
3 206 254 204
3 398 399 400
3 401 398 400
3 400 399 402
3 399 403 402
3 404 398 401
3 92 404 401
3 403 399 405
3 406 403 405
3 407 403 406
3 408 407 406
3 409 407 408
3 410 409 408
3 403 407 411
3 402 403 411
3 407 409 412
3 411 407 412
3 399 398 413
3 405 399 413
3 398 404 414
3 413 398 414
3 414 404 97
3 404 94 97
3 404 92 94
3 415 409 410
3 416 415 410
3 417 412 409
3 415 417 409
3 416 410 391
3 418 416 391
3 418 391 392
3 419 418 392
3 419 392 375
3 420 419 375
3 375 371 420
3 371 373 420
3 413 414 386
3 384 413 386
3 414 97 178
3 386 414 178
3 391 410 389
3 410 408 389
3 389 408 381
3 408 406 381
3 381 406 382
3 406 405 382
3 382 405 384
3 405 413 384
3 178 97 176
3 97 96 176
3 176 96 174
3 96 98 174
3 174 98 172
3 98 110 172
3 172 110 170
3 110 111 170
3 170 111 169
3 111 112 169
3 112 113 169
3 113 167 169
3 167 113 118
3 165 167 118
3 118 119 165
3 119 161 165
3 119 124 161
3 124 159 161
3 159 124 125
3 155 159 125
3 125 130 155
3 130 151 155
3 151 130 131
3 148 151 131
3 131 133 148
3 181 166 162
3 163 181 162
3 183 181 163
3 186 183 163
3 163 164 186
3 164 189 186
3 191 189 164
3 157 191 164
3 157 158 191
3 158 192 191
3 158 152 192
3 274 222 225
3 274 273 351
3 273 361 351
3 361 273 275
3 363 361 275
3 363 275 366
3 275 277 366
3 366 277 368
3 277 279 368
3 368 279 370
3 279 281 370
3 370 281 372
3 281 283 372
3 372 283 374
3 283 285 374
3 228 226 356
3 358 228 356
3 356 226 354
3 226 223 354
3 354 223 352
3 223 222 352
3 71 421 422
3 72 71 422
3 71 70 421
3 70 423 421
3 70 69 423
3 69 68 423
3 72 422 82
3 120 423 68
3 122 120 68
3 68 66 122
3 66 126 122
3 126 66 67
3 128 126 67
3 67 424 128
3 63 424 67
3 63 62 424
3 62 425 424
3 62 61 425
3 61 426 425
3 61 59 426
3 59 427 426
3 59 60 427
3 60 428 427
3 142 427 428
3 143 142 428
3 427 142 144
3 426 427 144
3 426 144 145
3 425 426 145
3 425 145 146
3 424 425 146
3 424 146 128
3 101 100 79
3 78 101 79
3 79 100 80
3 100 93 80
3 80 93 85
3 103 101 78
3 84 103 78
3 105 103 84
3 83 105 84
3 106 105 83
3 81 106 83
3 81 82 106
3 82 108 106
3 108 82 422
3 114 108 422
3 422 421 114
3 421 116 114
3 421 423 116
3 423 120 116
3 92 401 86
3 86 401 87
3 401 400 87
3 87 400 88
3 400 402 88
3 88 402 89
3 402 411 89
3 89 411 90
3 411 412 90
3 90 412 417
3 91 90 417
