ply
format ascii 1.0
comment Created in Blender version 4.3.2
element vertex 472
property float x
property float y
property float z
property float u
property float v
element face 815
property list uchar uint vertex_indices
end_header
3.9199243 -4.6861305 9.056321 0.880661 -0.68429726
5.3775516 -5.7550564 8.602838 0.8460086 -0.76515293
5.6042933 -5.917015 8.343703 0.8344578 -0.780554
5.798643 -6.0141907 7.987396 0.8190567 -0.79210484
5.8310356 -6.078974 7.566303 0.8075059 -0.8036556
5.798643 -6.0141907 7.112819 0.79210484 -0.8113562
5.7014694 -5.8846245 6.6917267 0.7767037 -0.8190567
5.5071187 -5.6902733 6.400201 0.76130265 -0.822907
4.8916764 -5.0424404 5.9143257 0.7189497 -0.8344578
3.7255747 -4.362213 6.3030257 0.64964485 -0.86140966
3.4340498 -4.2002544 6.5297675 0.62269294 -0.8691102
3.142524 -4.005905 6.7565093 0.5995913 -0.8691102
3.4016573 -4.0706882 6.4002004 0.62269294 -0.8575594
3.7579665 -4.2650394 6.1086755 0.64964485 -0.8498589
4.502976 -4.718523 5.881934 0.6996983 -0.83830804
3.3368742 -4.005905 6.3354173 0.62269294 -0.8498589
3.725575 -4.167864 6.0438914 0.64964485 -0.8421583
4.924069 -4.8804817 5.7847586 0.7150994 -0.82675725
5.3127694 -5.1720066 5.9467173 0.7343508 -0.822907
5.6690774 -5.431141 6.2058506 0.75360215 -0.81520647
5.9282117 -5.62549 6.56216 0.7690032 -0.8075059
6.09017 -5.787449 7.0156446 0.7844043 -0.79980534
6.1225605 -5.852232 7.533911 0.79980534 -0.79210484
6.0577774 -5.8198414 8.019787 0.8113562 -0.780554
5.831035 -5.722666 8.47327 0.822907 -0.7690032
5.5071177 -5.560707 8.764796 0.83830804 -0.75745237
5.1184173 -5.366356 8.991538 0.8498589 -0.7420513
4.729717 -5.139614 9.088713 0.86140966 -0.72665024
4.3086257 -4.9128723 9.121105 0.8729605 -0.7035486
4.3086257 -4.6861305 9.21828 0.86525995 -0.69584805
3.8875327 -4.4593887 9.153497 0.8729605 -0.6765967
3.4664407 -4.2650394 9.023929 0.880661 -0.6534951
3.1101317 -4.1030807 8.732404 0.8883616 -0.6303935
2.8833902 -3.9735126 8.376095 0.89606214 -0.6072919
2.7214315 -3.8439465 7.9873943 0.90376264 -0.58419025
2.6566477 -3.7467709 7.5015182 0.9114632 -0.55723834
2.7862148 -3.7467709 7.015643 0.923014 -0.5264362
3.8875325 -4.232647 9.250671 0.86140966 -0.6688962
3.4340491 -4.005905 9.05632 0.8691102 -0.6457946
4.3410163 -4.426996 9.315455 0.85370916 -0.68814754
3.0777402 -3.8439465 8.797187 0.8768108 -0.62269294
2.7862146 -3.6819878 8.440878 0.8845113 -0.5995913
2.624256 -3.5524216 7.9873943 0.8883616 -0.5764897
2.559473 -3.4876385 7.5015182 0.89606214 -0.54953784
2.6566477 -3.4876385 7.015643 0.9076129 -0.5225859
3.4340491 -3.7791634 9.088712 0.86140966 -0.638094
3.0777402 -3.5848122 8.829578 0.86525995 -0.61884266
2.7862146 -3.455246 8.440878 0.8729605 -0.59574103
3.855141 -3.941122 9.283063 0.85370916 -0.66119564
2.5918643 -3.3256798 7.9873943 0.8768108 -0.5726394
2.559473 -3.2608948 7.53391 0.8845113 -0.54568756
4.3410163 -4.1354713 9.380239 0.8460086 -0.680447
4.8268924 -4.29743 9.380239 0.8344578 -0.69584805
4.7945 -4.6213474 9.315455 0.8460086 -0.7073989
4.7621093 -4.9128723 9.21828 0.85370916 -0.7150994
5.1832004 -5.1072235 9.088713 0.8421583 -0.7343508
5.6042933 -5.269182 8.861971 0.83060753 -0.7459016
5.9606013 -5.3987484 8.5380535 0.8190567 -0.76130265
6.154953 -5.4635315 8.052178 0.8036556 -0.7728535
6.2521286 -5.431141 7.533911 0.78825456 -0.780554
6.219736 -5.366356 7.0156446 0.7728535 -0.79210484
6.057778 -5.2367897 6.5297685 0.76130265 -0.79980534
5.766253 -5.0424404 6.108676 0.7420513 -0.8036556
5.3775525 -4.848089 5.81715 0.72665024 -0.8113562
4.9564595 -4.65374 5.6551914 0.7073989 -0.8190567
4.502976 -4.6213474 5.7847586 0.6919978 -0.83060753
4.502976 -4.426996 5.6551914 0.68814754 -0.822907
4.0494924 -4.232647 5.7523665 0.6650459 -0.83060753
3.6607919 -4.0382957 5.946717 0.6457946 -0.83830804
3.2720914 -3.876339 6.2382417 0.61884266 -0.8421583
2.9805653 -3.7791634 6.626943 0.5918908 -0.8498589
2.7862148 -3.7467709 7.015643 0.5649389 -0.8575594
2.8833907 -3.520029 6.562159 0.58419025 -0.8344578
2.6566477 -3.4876385 7.015643 0.55723834 -0.8421583
3.2073073 -3.6172047 6.1734586 0.61114216 -0.83060753
3.6284003 -3.7467709 5.8819337 0.638094 -0.822907
4.0494924 -3.9087296 5.655191 0.65734535 -0.8190567
4.5353684 -4.1030807 5.558017 0.680447 -0.81520647
5.0212426 -4.29743 5.5904083 0.6996983 -0.8075059
5.053635 -3.9735126 5.558017 0.6919978 -0.79980534
4.5353684 -3.811554 5.525625 0.6727465 -0.8036556
5.5071187 -4.167864 5.7199755 0.7112492 -0.79210484
5.474728 -4.524172 5.752367 0.7189497 -0.8036556
5.8634286 -4.6861305 6.076285 0.7343508 -0.7959551
6.1549535 -4.848089 6.497377 0.74975187 -0.78825456
6.3169117 -4.9776554 7.0156446 0.76515293 -0.780554
6.3493023 -5.0424404 7.533911 0.780554 -0.7728535
6.2521286 -5.074831 8.052178 0.7959551 -0.76130265
6.0253863 -5.0424404 8.5380535 0.8075059 -0.74975187
5.6690764 -4.945265 8.926755 0.822907 -0.738201
5.2479854 -4.783306 9.185888 0.8344578 -0.72279996
5.3127685 -4.4593887 9.21828 0.82675725 -0.7150994
6.316911 -4.6861305 8.08457 0.78825456 -0.74975187
6.4140873 -4.65374 7.533911 0.7728535 -0.76130265
6.0901694 -4.65374 8.602838 0.79980534 -0.738201
5.7338595 -4.5565643 8.9591465 0.81520647 -0.72665024
5.3127685 -4.1030807 9.283063 0.81520647 -0.7035486
4.859283 -3.9735126 9.41263 0.82675725 -0.68814754
5.345159 -3.6495953 9.283063 0.8075059 -0.6919978
4.859283 -3.5848122 9.41263 0.81520647 -0.680447
5.7986426 -3.7143803 9.02393 0.7959551 -0.7073989
5.766252 -4.2002544 9.02393 0.8075059 -0.7189497
6.1549525 -3.7467709 8.635229 0.7844043 -0.7189497
6.12256 -4.232647 8.635229 0.79210484 -0.7305005
6.3816943 -4.2650394 8.1169615 0.780554 -0.7420513
6.3816943 -3.7467709 8.1169615 0.7690032 -0.7305005
6.446478 -4.2002544 7.566303 0.76515293 -0.74975187
6.446478 -3.7143803 7.566303 0.75745237 -0.738201
5.3775516 -3.2285042 9.283063 0.7959551 -0.68429726
4.859283 -3.163721 9.41263 0.8075059 -0.6688962
4.3410163 -3.4876385 9.41263 0.82675725 -0.66119564
4.373409 -3.1313286 9.445022 0.81520647 -0.6534951
4.3410163 -3.811554 9.41263 0.83830804 -0.6727465
5.7986426 -3.2608948 8.991538 0.7844043 -0.69584805
6.1549525 -3.2932873 8.602838 0.7728535 -0.7073989
6.349302 -3.2932873 8.1169615 0.76130265 -0.7189497
6.446478 -3.2608948 7.566303 0.7459016 -0.7305005
3.855141 -3.3904629 9.347847 0.8344578 -0.6457946
3.855141 -3.034153 9.347847 0.82675725 -0.638094
3.4340491 -3.2608948 9.121104 0.8421583 -0.6265432
3.4340491 -3.520029 9.121104 0.8498589 -0.6342437
3.0453486 -3.3256798 8.829578 0.8575594 -0.61114216
3.0453486 -3.098938 8.829578 0.8460086 -0.6072919
2.7862146 -3.1961117 8.440878 0.86140966 -0.58804053
2.7862146 -2.96937 8.440878 0.85370916 -0.58419025
3.855141 -3.6495953 9.315455 0.8460086 -0.6534951
3.0453486 -2.8398037 8.829578 0.83830804 -0.5995913
2.7862146 -2.7102356 8.440878 0.8421583 -0.58033997
2.624256 -2.9045868 7.9873943 0.8575594 -0.5610886
2.624256 -2.6454525 7.9873943 0.8460086 -0.55723834
2.559473 -2.8398037 7.53391 0.86140966 -0.537987
2.5918646 -2.613062 7.5015182 0.8498589 -0.5341367
2.624256 -3.098938 8.019786 0.86525995 -0.5649389
2.559473 -3.034153 7.53391 0.8729605 -0.5418373
3.4340491 -2.9369793 9.153496 0.83060753 -0.61884266
2.6566477 -2.8074112 7.0480347 0.8691102 -0.5110351
2.6890402 -2.5806694 7.015643 0.85370916 -0.5071848
2.6242561 -3.034153 7.0480347 0.880661 -0.51488537
2.6242561 -2.321535 7.5015182 0.8344578 -0.5341367
2.7214317 -2.2891445 7.015643 0.83830804 -0.5071848
2.6890402 -1.9976187 7.5015182 0.8190567 -0.5302865
2.7214315 -2.0300102 7.9873943 0.8190567 -0.55338806
2.68904 -2.3539276 7.9873943 0.83060753 -0.55338806
2.8833902 -2.0947933 8.408486 0.81520647 -0.5726394
2.8186061 -2.4187107 8.408486 0.82675725 -0.5764897
3.1425233 -2.1595783 8.797187 0.8113562 -0.5918908
3.0777402 -2.4834938 8.829578 0.822907 -0.59574103
3.4664407 -2.2243614 9.088712 0.8075059 -0.6072919
3.4340491 -2.613062 9.121104 0.8190567 -0.6149924
3.8875325 -2.2891445 9.315455 0.79980534 -0.62269294
3.8875325 -2.677845 9.347847 0.8113562 -0.6303935
3.5312238 -1.8680525 9.05632 0.79210484 -0.6034416
3.2073064 -1.8032684 8.764795 0.7959551 -0.58804053
3.9523156 -1.900444 9.250671 0.78825456 -0.61884266
2.9481733 -1.7384853 8.408486 0.79980534 -0.5687892
3.304482 -1.4469595 8.700011 0.7844043 -0.58419025
3.045349 -1.414568 8.376095 0.7844043 -0.5687892
3.4016566 -1.1230431 8.635228 0.7690032 -0.58033997
3.6931825 -1.1554346 8.894362 0.7690032 -0.59574103
3.5960069 -1.479352 8.991538 0.780554 -0.5995913
3.984707 -1.5117435 9.185888 0.7767037 -0.6149924
4.0494914 -1.1878262 9.088713 0.76130265 -0.61114216
4.438192 -1.5441351 9.250671 0.7690032 -0.6265432
4.4705825 -1.1878262 9.153497 0.75745237 -0.62269294
4.8916755 -1.5441351 9.250671 0.76130265 -0.638094
4.859283 -1.1878262 9.121105 0.74975187 -0.6342437
4.8268924 -0.8639087 8.991538 0.7420513 -0.6265432
4.4705825 -0.8639087 8.991538 0.7459016 -0.61884266
5.2479854 -1.2202177 8.991538 0.7459016 -0.6457946
5.280376 -1.5765266 9.088713 0.75360215 -0.64964485
5.571901 -1.2202177 8.764796 0.738201 -0.6534951
5.6690764 -1.6089182 8.861971 0.7459016 -0.66119564
5.831035 -1.2526093 8.440879 0.7305005 -0.6650459
5.9606013 -1.6413097 8.505662 0.738201 -0.6727465
6.025387 -1.2526093 8.019787 0.7189497 -0.6727465
6.154953 -1.6413097 8.052178 0.72665024 -0.68429726
6.219736 -1.6413097 7.566303 0.7150994 -0.6919978
6.09017 -1.2526093 7.566303 0.7073989 -0.68429726
6.1873436 -1.6089182 7.0804276 0.7035486 -0.6996983
6.0577774 -1.2526093 7.112819 0.69584805 -0.6919978
5.960602 -1.2202177 6.7241187 0.68814754 -0.6996983
6.0577774 -1.5765266 6.626944 0.6919978 -0.7073989
5.766253 -1.2202177 6.3678093 0.6765967 -0.7035486
5.831036 -1.5765266 6.270635 0.680447 -0.7150994
5.5071187 -1.5117435 5.979109 0.6688962 -0.7189497
5.4423356 -1.1554346 6.108676 0.6650459 -0.7073989
5.118418 -1.479352 5.7847586 0.65734535 -0.72279996
5.0860276 -1.1230431 5.9143257 0.6534951 -0.7112492
4.632542 -1.414568 5.752367 0.6419443 -0.72665024
4.632542 -1.0906515 5.881934 0.638094 -0.7150994
4.1790586 -1.3821764 5.8171496 0.6265432 -0.7305005
4.211451 -1.058259 5.914325 0.62269294 -0.7189497
3.7579665 -1.3497849 6.0115 0.6072919 -0.7305005
3.8227506 -1.0258675 6.1086755 0.6072919 -0.7189497
3.4016573 -1.3173933 6.270634 0.58804053 -0.7305005
3.4664414 -1.0258675 6.367809 0.5918908 -0.7189497
3.207307 -1.0258675 6.691726 0.5726394 -0.7150994
3.1101325 -1.3173933 6.626943 0.5687892 -0.7305005
3.0453491 -1.0258675 7.0804267 0.54953784 -0.7112492
2.915782 -1.3173933 7.048035 0.54568756 -0.72665024
5.118418 -1.83566 5.687584 0.66119564 -0.7343508
4.632542 -1.7708769 5.6551914 0.6457946 -0.738201
4.6001515 -2.1595783 5.5904083 0.64964485 -0.74975187
5.118418 -2.2243614 5.6228 0.6650459 -0.7459016
4.6001515 -2.4834938 5.525625 0.6534951 -0.76130265
5.118418 -2.5806694 5.558017 0.6688962 -0.75745237
5.539511 -2.2891445 5.81715 0.680447 -0.7420513
5.571902 -2.6454525 5.752367 0.68429726 -0.75360215
5.895819 -2.3539276 6.1086764 0.6919978 -0.7343508
5.8634286 -1.9652271 6.1734595 0.68814754 -0.72665024
5.539511 -1.900444 5.881934 0.6727465 -0.7305005
5.9282117 -2.7102356 6.076285 0.6996983 -0.7459016
6.187344 -2.38632 6.5297685 0.7035486 -0.72665024
6.2197366 -2.7750206 6.497377 0.7112492 -0.738201
6.3493023 -2.4187107 7.048036 0.7189497 -0.7189497
6.2521286 -1.9976187 7.048036 0.7112492 -0.7112492
6.122561 -1.9652271 6.5945516 0.6996983 -0.7189497
6.381695 -2.8074112 7.0156446 0.72665024 -0.7305005
6.381695 -2.4511032 7.566303 0.7305005 -0.7112492
6.4140873 -2.8398037 7.566303 0.738201 -0.7189497
6.2845187 -2.4511032 8.1169615 0.7420513 -0.6996983
6.349302 -2.8721943 8.1169615 0.75360215 -0.7073989
6.12256 -2.8398037 8.602838 0.76515293 -0.6996983
6.0901694 -2.4511032 8.570446 0.75360215 -0.68814754
5.7986426 -2.8398037 8.991538 0.7728535 -0.68814754
5.766252 -2.4187107 8.9591465 0.76515293 -0.6765967
5.3775516 -2.8074112 9.250671 0.7844043 -0.6765967
5.345159 -2.38632 9.21828 0.7728535 -0.6650459
4.8916755 -2.7750206 9.41263 0.7959551 -0.66119564
4.8916755 -2.3539276 9.380239 0.7844043 -0.6534951
4.373409 -2.742628 9.445022 0.8036556 -0.6457946
4.373409 -2.321535 9.41263 0.79210484 -0.638094
6.2197356 -2.0300102 8.08457 0.7343508 -0.6919978
6.3169117 -2.0300102 7.566303 0.72279996 -0.6996983
6.0253863 -2.0300102 8.570446 0.7459016 -0.680447
5.7338595 -1.9976187 8.926755 0.75745237 -0.6688962
5.345159 -1.9652271 9.185888 0.76515293 -0.65734535
4.8916755 -1.9328356 9.315455 0.7728535 -0.6457946
4.4057994 -1.9328356 9.347847 0.780554 -0.6342437
6.381695 -3.2285042 6.983252 0.7343508 -0.738201
6.4140873 -3.6819878 6.983252 0.7420513 -0.74975187
6.2197366 -3.6172047 6.4649854 0.72665024 -0.75745237
6.2197366 -3.1961117 6.4649854 0.7189497 -0.74975187
6.2197366 -4.0382957 6.432593 0.7343508 -0.7690032
6.381695 -4.1354713 6.983252 0.74975187 -0.76130265
5.9282117 -3.941122 6.011501 0.7189497 -0.7767037
5.9282117 -3.520029 6.011501 0.7112492 -0.76515293
5.539511 -3.7791634 5.687584 0.7035486 -0.7844043
5.539511 -3.4228535 5.7199755 0.69584805 -0.7728535
5.9282117 -3.1313286 6.0438924 0.7035486 -0.75745237
5.539511 -3.034153 5.7199755 0.68814754 -0.76130265
5.0860276 -3.6495953 5.525625 0.68429726 -0.78825456
5.0860276 -3.2932873 5.525625 0.680447 -0.7767037
4.567759 -3.4876385 5.4932337 0.6688962 -0.79210484
4.567759 -3.163721 5.4932337 0.66119564 -0.7844043
5.118418 -2.9369793 5.525625 0.6727465 -0.7690032
4.6001515 -2.8398037 5.4932337 0.65734535 -0.7728535
4.0494924 -3.034153 5.590408 0.6419443 -0.78825456
4.0494924 -2.742628 5.590408 0.638094 -0.7767037
3.5636163 -2.9369793 5.8171496 0.61884266 -0.79210484
3.5960078 -2.6454525 5.8171496 0.6149924 -0.780554
3.1749158 -2.8721943 6.141067 0.59574103 -0.7959551
3.1749158 -2.613062 6.141067 0.59574103 -0.7844043
2.8509982 -2.8398037 6.5621586 0.5726394 -0.8036556
2.8833907 -2.5806694 6.562159 0.5726394 -0.79210484
2.6890402 -2.5806694 7.015643 0.54568756 -0.7959551
2.6566477 -2.8074112 7.0480347 0.54568756 -0.8075059
2.8509982 -3.034153 6.5621586 0.5764897 -0.8113562
2.6242561 -3.034153 7.0480347 0.54568756 -0.8190567
3.1749158 -3.098938 6.1734586 0.5995913 -0.8075059
3.5636163 -3.1961117 5.8171496 0.6265432 -0.8036556
4.081884 -3.3256798 5.590408 0.6457946 -0.7959551
4.081884 -2.4187107 5.6227994 0.6342437 -0.76515293
4.1142755 -2.0947933 5.6875834 0.6303935 -0.75360215
4.146667 -1.7384853 5.719975 0.6265432 -0.7420513
3.6931834 -1.6737022 5.914325 0.6072919 -0.7459016
3.304483 -1.6413097 6.20585 0.58804053 -0.7459016
3.0129569 -1.6413097 6.5945506 0.5687892 -0.7459016
2.8186064 -1.6737022 7.015643 0.54568756 -0.7459016
2.9481738 -1.9652271 6.562159 0.5687892 -0.76130265
2.7538233 -1.9976187 7.015643 0.54568756 -0.76130265
2.9157822 -2.2891445 6.562159 0.5687892 -0.7767037
2.7214317 -2.2891445 7.015643 0.54568756 -0.7767037
3.2720914 -1.9976187 6.1734586 0.5918908 -0.75745237
3.2073073 -2.2891445 6.1734586 0.5918908 -0.7728535
3.6607919 -2.0300102 5.8819337 0.61114216 -0.75745237
3.5960078 -2.3539276 5.849541 0.6149924 -0.7690032
4.7945 -0.60477537 8.829579 0.7305005 -0.62269294
5.0860267 -0.60477537 8.700012 0.72665024 -0.6303935
5.15081 -0.8639087 8.861971 0.7343508 -0.638094
5.4423347 -0.8963012 8.667621 0.72665024 -0.6457946
5.345159 -0.60477537 8.505662 0.7189497 -0.6419443
5.701469 -0.8963012 8.343703 0.7189497 -0.6534951
5.5395103 -0.60477537 8.246529 0.7112492 -0.64964485
5.863428 -0.8963012 7.987396 0.7112492 -0.6650459
5.7014694 -0.6371669 7.922611 0.7035486 -0.65734535
5.7662525 -0.6371669 7.5663023 0.69584805 -0.6650459
5.928211 -0.8963012 7.566303 0.6996983 -0.6727465
5.7662525 -0.6371669 7.2099943 0.68429726 -0.6727465
5.928211 -0.8963012 7.1776023 0.6919978 -0.680447
5.669077 -0.60477537 6.9184685 0.6765967 -0.680447
5.8310356 -0.8639087 6.8212943 0.680447 -0.68814754
5.5395107 -0.60477537 6.6269436 0.6688962 -0.68429726
5.636687 -0.8639087 6.4973764 0.6727465 -0.6919978
5.280377 -0.5723838 6.400201 0.65734535 -0.68814754
5.3775525 -0.83151716 6.238242 0.66119564 -0.6996983
5.0212426 -0.7991256 6.0762844 0.64964485 -0.7035486
4.988852 -0.5723838 6.2706347 0.6457946 -0.6919978
4.632542 -0.7991256 6.043892 0.6342437 -0.7035486
4.632542 -0.5723838 6.2058506 0.6342437 -0.69584805
4.2438416 -0.76673406 6.076284 0.62269294 -0.7073989
4.276234 -0.5399923 6.2382417 0.61884266 -0.69584805
3.8875337 -0.76673406 6.2382417 0.6072919 -0.7073989
3.9523165 -0.5399923 6.367809 0.6072919 -0.69584805
3.563616 -0.7343425 6.4649844 0.5918908 -0.7035486
3.6607916 -0.5399923 6.562159 0.5918908 -0.69584805
3.3044827 -0.7343426 6.7565093 0.5726394 -0.7035486
3.4340498 -0.53999233 6.853685 0.5764897 -0.6919978
3.1749153 -0.7343425 7.1128182 0.55723834 -0.69584805
3.3044825 -0.5075998 7.1776013 0.5610886 -0.68429726
5.1832013 -0.41042516 6.5621595 0.6534951 -0.680447
5.377552 -0.41042516 6.75651 0.66119564 -0.6765967
5.507118 -0.41042516 6.9832516 0.6727465 -0.6727465
5.5719013 -0.41042516 7.2747774 0.680447 -0.6650459
4.017101 -0.3780336 6.5297675 0.6072919 -0.68814754
4.276234 -0.3780336 6.4002004 0.61884266 -0.68814754
4.6001515 -0.3780336 6.3678093 0.6303935 -0.68429726
4.924069 -0.3780336 6.4325924 0.6419443 -0.68429726
5.5719013 -0.41042516 7.5663023 0.68814754 -0.65734535
5.5395107 -0.41042516 7.857828 0.69584805 -0.64964485
5.409942 -0.41042516 8.1169615 0.7035486 -0.6419443
5.215593 -0.41042516 8.376096 0.7112492 -0.6342437
5.0212417 -0.41042516 8.5380535 0.7189497 -0.6265432
4.7621093 -0.41042516 8.635229 0.72279996 -0.61884266
4.4705825 -0.60477537 8.861971 0.738201 -0.61114216
4.4705825 -0.41042516 8.667621 0.72665024 -0.6072919
4.146666 -0.60477537 8.797188 0.7420513 -0.5995913
4.1142745 -0.83151716 8.926755 0.74975187 -0.6034416
3.790357 -0.83151716 8.797188 0.75360215 -0.5918908
3.8227496 -0.60477537 8.667621 0.7459016 -0.58804053
3.4664407 -0.83151716 8.570445 0.75745237 -0.58033997
3.5636153 -0.5723838 8.473269 0.7459016 -0.5764897
3.2396991 -0.7991256 8.246528 0.75745237 -0.5649389
3.3692653 -0.5723838 8.181745 0.74975187 -0.5610886
3.110132 -0.76673406 7.890219 0.75745237 -0.54953784
3.2720907 -0.5399923 7.8578277 0.7459016 -0.54953784
3.0777407 -0.76673406 7.5015187 0.75745237 -0.5302865
3.2396994 -0.5399923 7.5015187 0.7420513 -0.5341367
3.1749153 -0.7343425 7.1128182 0.74975187 -0.5110351
3.3044825 -0.5075998 7.1776013 0.738201 -0.51873565
3.401657 -0.34564206 7.5015187 0.7305005 -0.537987
3.4340496 -0.34564206 7.209994 0.72665024 -0.5225859
3.4016569 -0.3780336 7.825436 0.7343508 -0.54953784
3.4988325 -0.3780336 8.084569 0.738201 -0.5610886
3.6607912 -0.3780336 8.343703 0.738201 -0.5764897
3.9199243 -0.41042516 8.505662 0.7343508 -0.58804053
3.5960073 -0.24846646 7.274777 0.7150994 -0.5302865
3.5312243 -0.24846646 7.5339103 0.72279996 -0.5418373
3.5636156 -0.24846646 7.760652 0.72665024 -0.55338806
3.6607912 -0.24846646 8.019787 0.7305005 -0.5610886
3.7903574 -0.24846646 8.214137 0.72665024 -0.5726394
3.9847076 -0.24846646 8.343703 0.72665024 -0.58419025
4.21145 -0.280858 8.47327 0.72279996 -0.59574103
4.1790576 -0.41042516 8.635229 0.7305005 -0.5995913
4.4705825 -0.280858 8.505662 0.7189497 -0.6034416
4.697326 -0.280858 8.47327 0.7150994 -0.6149924
4.924068 -0.280858 8.376096 0.7112492 -0.62269294
5.1184173 -0.280858 8.214137 0.7035486 -0.6303935
5.247986 -0.280858 8.019787 0.69584805 -0.638094
5.3451595 -0.280858 7.793045 0.68814754 -0.6419443
5.4099426 -0.280858 7.5663023 0.680447 -0.64964485
5.4099426 -0.280858 7.307169 0.6765967 -0.65734535
5.3451595 -0.280858 7.080427 0.6688962 -0.6650459
5.247986 -0.280858 6.886077 0.66119564 -0.6688962
5.0536346 -0.280858 6.724118 0.64964485 -0.6727465
4.8268933 -0.280858 6.594551 0.638094 -0.6765967
4.567759 -0.24846646 6.5621595 0.6303935 -0.6765967
4.3086267 -0.24846646 6.5945506 0.61884266 -0.680447
4.0818834 -0.24846646 6.691726 0.6072919 -0.6765967
3.7579663 -0.3780336 6.691726 0.5918908 -0.68429726
3.563616 -0.34564206 6.918468 0.58033997 -0.680447
3.4340496 -0.34564206 7.209994 0.5649389 -0.6727465
3.8551419 -0.24846646 6.8212934 0.59574103 -0.6765967
3.693183 -0.24846646 7.048035 0.58419025 -0.6727465
3.5960073 -0.24846646 7.274777 0.5726394 -0.6650459
3.82275 -0.18368337 7.1128182 0.58804053 -0.6650459
3.7255745 -0.18368337 7.3071685 0.5764897 -0.65734535
4.4381924 -0.18368337 7.5339108 0.6072919 -0.6342437
3.9523165 -0.18368337 6.9508595 0.59574103 -0.6688962
4.114275 -0.18368337 6.8212934 0.6072919 -0.6727465
4.341017 -0.18368337 6.75651 0.6149924 -0.6727465
4.5677586 -0.18368337 6.724118 0.6265432 -0.6688962
4.7621098 -0.18368337 6.75651 0.638094 -0.6650459
4.956459 -0.18368337 6.8536854 0.6457946 -0.6650459
4.4381924 -0.18368337 7.5339108 0.6419443 -0.62269294
5.086027 -0.18368337 6.9832516 0.65734535 -0.66119564
5.183201 -0.18368337 7.177602 0.6650459 -0.65734535
5.247986 -0.18368337 7.3395605 0.6688962 -0.6534951
5.247986 -0.18368337 7.5663023 0.6765967 -0.6457946
5.2155933 -0.18368337 7.7606525 0.68429726 -0.638094
5.1184177 -0.18368337 7.955003 0.6919978 -0.6303935
4.4381924 -0.18368337 7.5339108 0.6727465 -0.59574103
4.988851 -0.18368337 8.1169615 0.6996983 -0.6265432
4.859283 -0.18368337 8.214137 0.7035486 -0.61884266
4.6649337 -0.18368337 8.311312 0.7073989 -0.61114216
4.4705825 -0.18368337 8.343703 0.7112492 -0.6034416
4.2438407 -0.18368337 8.311312 0.7150994 -0.5918908
4.0494914 -0.18368337 8.214137 0.7189497 -0.58033997
4.4381924 -0.18368337 7.5339108 0.680447 -0.5649389
3.887533 -0.18368337 8.08457 0.7189497 -0.5726394
3.7903574 -0.18368337 7.9226108 0.72279996 -0.5610886
3.6931827 -0.18368337 7.7282605 0.7189497 -0.55338806
3.693183 -0.18368337 7.5339103 0.7150994 -0.5418373
3.7255745 -0.18368337 7.3071685 0.7073989 -0.5341367
3.1425235 -1.0906515 8.311311 0.7728535 -0.5649389
2.8833902 -1.3821764 7.9550023 0.78825456 -0.54953784
3.0129564 -1.058259 7.9226108 0.7728535 -0.54568756
2.850998 -1.3497849 7.5015182 0.7844043 -0.5264362
2.9481735 -1.0258675 7.5015187 0.7690032 -0.5302865
2.915782 -1.3173933 7.048035 0.7844043 -0.5071848
3.0453491 -1.0258675 7.0804267 0.76515293 -0.5071848
2.7538233 -1.6737022 7.5015182 0.8036556 -0.5302865
2.7862146 -1.7060938 7.955002 0.8036556 -0.54953784
2.8186064 -1.6737022 7.015643 0.8036556 -0.5033346
2.7538233 -1.9976187 7.015643 0.8190567 -0.5033346
6.3493023 -4.5565643 6.983252 0.75745237 -0.7690032
6.187344 -4.4593887 6.4649854 0.7420513 -0.780554
5.895819 -4.3298225 6.0438924 0.72665024 -0.78825456
4.0494924 -3.6172047 5.6227994 0.6534951 -0.8075059
3.5960078 -3.4876385 5.849541 0.6303935 -0.81520647
3.1749158 -3.3580704 6.1734586 0.6072919 -0.8190567
2.8509982 -3.2932873 6.5621586 0.58033997 -0.822907
2.6566477 -3.2608948 7.015643 0.54953784 -0.83060753
2.6566477 -3.2608948 7.015643 0.89221185 -0.51873565
5.409943 -5.560707 6.400201 0.34932378 -0.6919978
5.6366863 -5.7550564 6.724118 0.33007243 -0.68429726
2.9481733 -4.0706882 8.343702 0.13370864 -0.82675725
2.8186061 -3.941122 7.955002 0.1375589 -0.8498589
2.8509977 -3.941122 8.440878 0.12600811 -0.82675725
2.7214315 -3.811554 8.019786 0.12985837 -0.8498589
2.6890402 -3.7791634 7.5663013 0.1375589 -0.8729605
5.409942 -5.6578827 8.635229 0.22611512 -0.69584805
5.701469 -5.8846245 8.343703 0.24536647 -0.680447
5.928211 -5.9818 7.0156446 0.31467134 -0.6688962
5.766253 -5.787449 6.594551 0.33392268 -0.6765967
3.6931834 -4.3298225 6.20585 0.4224789 -0.76515293
3.7255747 -4.3946056 6.4002004 0.41477835 -0.7690032
3.3692658 -4.167864 6.497376 0.43017945 -0.7844043
3.4340498 -4.232647 6.5945506 0.4224789 -0.7844043
3.142524 -4.0706882 6.8212934 0.43017945 -0.79980534
3.207307 -4.1030807 6.8860765 0.42632917 -0.79980534
3.0129569 -3.941122 6.691726 0.43787998 -0.79980534
3.2720912 -4.0706882 6.3354173 0.43787998 -0.780554
5.5071177 -5.6578827 8.797188 0.22226484 -0.68814754
4.729717 -5.139614 9.153497 0.18376215 -0.7189497
5.215593 -5.3339653 9.153497 0.19531296 -0.6996983
4.7945 -5.074831 9.315455 0.17606162 -0.7150994
4.7945 -5.074831 9.283063 0.17991188 -0.7150994
4.373409 -4.8156967 9.347847 0.16066054 -0.7343508
4.373409 -4.783306 9.315455 0.16066054 -0.7343508
3.7903566 -4.848089 10.125248 0.11830756 -0.72279996
3.855141 -4.65374 9.704156 0.12985837 -0.738201
3.1101315 -4.426996 9.898505 0.09520594 -0.75360215
2.5918646 -3.6172047 7.080426 0.14140917 -0.89991236
2.7538228 -3.8439465 8.505661 0.11830756 -0.82675725
2.7862144 -3.8439465 8.473269 0.11830756 -0.82675725
2.624256 -3.7143803 8.084569 0.12215783 -0.8498589
2.6566474 -3.7143803 8.052177 0.12215783 -0.8498589
2.5918646 -3.6495953 7.598694 0.12985837 -0.8729605
2.6242561 -3.6819878 7.598694 0.13370864 -0.8729605
2.6566477 -3.6495953 7.080426 0.14525945 -0.89991236
2.6890402 -3.6819878 7.080426 0.14525945 -0.89606214
3 12 11 10
3 12 10 9
3 13 12 9
3 14 8 17
3 17 8 18
3 19 7 20
3 7 6 20
3 20 6 21
3 6 5 21
3 22 21 5
3 4 22 5
3 22 4 23
3 4 3 23
3 3 2 23
3 2 24 23
3 2 1 24
3 1 25 24
3 29 28 0
3 30 29 0
3 37 30 31
3 38 37 31
3 38 31 32
3 39 29 30
3 37 39 30
3 40 32 33
3 40 38 32
3 41 40 33
3 41 33 34
3 42 41 34
3 42 34 35
3 43 42 35
3 44 43 35
3 36 44 35
3 45 38 40
3 46 45 40
3 46 40 41
3 47 46 41
3 47 41 42
3 48 37 38
3 45 48 38
3 49 47 42
3 49 42 43
3 50 49 43
3 51 39 37
3 48 51 37
3 51 52 39
3 52 53 39
3 39 53 29
3 53 54 29
3 29 54 28
3 54 27 28
3 54 55 27
3 55 26 27
3 55 56 26
3 56 25 26
3 56 57 25
3 57 24 25
3 57 58 24
3 58 23 24
3 23 58 59
3 22 23 59
3 22 59 21
3 59 60 21
3 21 60 20
3 60 61 20
3 20 61 19
3 61 62 19
3 19 62 18
3 62 63 18
3 18 63 17
3 63 64 17
3 17 64 65
3 65 14 17
3 64 66 65
3 16 68 15
3 68 69 15
3 70 72 71
3 72 73 71
3 74 72 70
3 69 74 70
3 75 74 69
3 68 75 69
3 76 75 68
3 67 76 68
3 77 76 67
3 66 77 67
3 78 77 66
3 77 78 79
3 80 77 79
3 76 77 80
3 79 78 81
3 78 82 81
3 82 78 64
3 63 82 64
3 83 82 63
3 62 83 63
3 84 83 62
3 61 84 62
3 85 84 61
3 60 85 61
3 86 85 60
3 59 86 60
3 87 86 59
3 58 87 59
3 87 58 57
3 88 87 57
3 88 57 56
3 89 88 56
3 89 56 55
3 90 89 55
3 90 55 54
3 53 90 54
3 91 90 53
3 52 91 53
3 86 87 92
3 92 87 88
3 93 86 92
3 94 88 89
3 94 92 88
3 95 94 89
3 95 89 90
3 91 95 90
3 96 91 52
3 97 96 52
3 98 96 97
3 99 98 97
3 98 100 96
3 100 101 96
3 101 95 91
3 96 101 91
3 100 102 101
3 102 103 101
3 103 94 95
3 101 103 95
3 104 103 102
3 93 92 104
3 104 92 94
3 103 104 94
3 105 104 102
3 106 104 105
3 106 93 104
3 107 106 105
3 98 99 108
3 99 109 108
3 99 110 109
3 110 111 109
3 99 97 112
3 110 99 112
3 98 108 113
3 100 98 113
3 100 113 114
3 102 100 114
3 102 114 105
3 114 115 105
3 105 115 107
3 115 116 107
3 110 117 111
3 117 118 111
3 117 119 118
3 119 117 120
3 119 120 121
3 122 119 121
3 122 121 123
3 124 122 123
3 117 125 120
3 125 117 110
3 112 125 110
3 122 124 126
3 124 127 126
3 124 128 127
3 128 129 127
3 128 130 129
3 130 131 129
3 124 123 132
3 128 124 132
3 128 132 133
3 130 128 133
3 122 126 134
3 119 122 134
3 119 134 118
3 130 135 131
3 135 136 131
3 137 135 130
3 133 137 130
3 131 136 138
3 136 139 138
3 138 139 140
3 140 141 138
3 141 142 138
3 131 138 142
3 129 131 142
3 141 143 142
3 143 144 142
3 143 145 144
3 145 146 144
3 145 147 146
3 147 148 146
3 147 149 148
3 149 150 148
3 151 147 145
3 152 151 145
3 152 145 143
3 153 149 147
3 151 153 147
3 154 152 143
3 154 143 141
3 152 154 155
3 154 156 155
3 155 156 157
3 155 157 158
3 159 155 158
3 152 155 159
3 151 152 159
3 153 151 159
3 160 159 158
3 160 153 159
3 161 160 158
3 162 160 161
3 163 162 161
3 164 162 163
3 165 164 163
3 166 165 163
3 167 166 163
3 164 165 168
3 169 164 168
3 169 168 170
3 171 169 170
3 171 170 172
3 173 171 172
3 173 172 174
3 175 173 174
3 176 175 174
3 177 176 174
3 178 176 177
3 179 178 177
3 178 179 180
3 181 178 180
3 181 180 182
3 183 181 182
3 184 183 182
3 185 184 182
3 186 184 185
3 187 186 185
3 188 186 187
3 189 188 187
3 190 188 189
3 191 190 189
3 192 190 191
3 193 192 191
3 194 192 193
3 195 194 193
3 194 195 196
3 197 194 196
3 197 196 198
3 199 197 198
3 186 200 184
3 201 200 186
3 188 201 186
3 200 201 202
3 203 200 202
3 203 202 204
3 205 203 204
3 203 205 206
3 205 207 206
3 208 206 207
3 208 209 206
3 209 210 206
3 203 206 210
3 200 203 210
3 211 208 207
3 208 211 212
3 211 213 212
3 212 213 214
3 214 215 212
3 215 216 212
3 208 212 216
3 209 208 216
3 213 217 214
3 218 214 217
3 219 218 217
3 218 219 220
3 219 221 220
3 220 221 222
3 223 220 222
3 223 222 224
3 225 223 224
3 225 224 226
3 227 225 226
3 227 226 228
3 229 227 228
3 229 228 230
3 231 229 230
3 218 220 232
3 232 220 223
3 233 218 232
3 232 175 233
3 175 176 233
3 232 234 175
3 234 232 223
3 234 223 225
3 234 173 175
3 234 235 173
3 235 234 225
3 235 225 227
3 235 171 173
3 235 236 171
3 236 235 227
3 236 227 229
3 236 169 171
3 236 237 169
3 237 236 229
3 237 229 231
3 237 164 169
3 164 237 162
3 237 238 162
3 238 237 231
3 162 238 160
3 238 153 160
3 153 238 149
3 238 231 149
3 150 149 231
3 230 150 231
3 118 150 230
3 118 134 150
3 134 148 150
3 134 126 148
3 126 146 148
3 126 127 146
3 127 144 146
3 127 129 144
3 129 142 144
3 111 118 230
3 111 230 228
3 109 111 228
3 109 228 226
3 108 109 226
3 108 226 224
3 113 108 224
3 113 224 222
3 114 113 222
3 114 222 221
3 115 114 221
3 116 115 221
3 219 116 221
3 116 219 239
3 116 239 240
3 240 239 241
3 239 242 241
3 241 243 240
3 243 244 240
3 245 243 241
3 246 245 241
3 246 241 242
3 245 246 247
3 246 248 247
3 246 249 248
3 249 246 242
3 249 250 248
3 251 247 248
3 252 251 248
3 252 248 250
3 251 252 253
3 252 254 253
3 252 255 254
3 255 252 250
3 255 256 254
3 257 254 256
3 258 257 256
3 257 258 259
3 258 260 259
3 259 260 261
3 260 262 261
3 261 262 263
3 262 264 263
3 264 265 263
3 265 266 263
3 267 263 266
3 263 267 261
3 268 267 266
3 267 269 261
3 261 269 259
3 269 270 259
3 259 270 257
3 270 271 257
3 257 271 254
3 271 253 254
3 260 258 272
3 272 258 204
3 272 204 202
3 273 272 202
3 202 201 273
3 201 274 273
3 274 201 188
3 190 274 188
3 275 274 190
3 192 275 190
3 276 275 192
3 194 276 192
3 194 197 276
3 197 277 276
3 197 199 277
3 199 278 277
3 277 278 279
3 278 280 279
3 279 280 281
3 280 282 281
3 277 279 283
3 276 277 283
3 275 276 283
3 284 283 279
3 281 284 279
3 285 275 283
3 283 284 285
3 274 275 285
3 273 274 285
3 284 286 285
3 285 286 273
3 286 272 273
3 286 260 272
3 262 260 286
3 284 262 286
3 262 284 281
3 264 262 281
3 264 281 282
3 265 264 282
3 64 78 66
3 166 287 288
3 289 166 288
3 289 288 290
3 288 291 290
3 290 291 292
3 291 293 292
3 292 293 294
3 293 295 294
3 294 295 296
3 297 294 296
3 297 296 298
3 299 297 298
3 299 298 300
3 301 299 300
3 301 300 302
3 303 301 302
3 303 302 304
3 305 303 304
3 305 304 306
3 304 307 306
3 306 307 308
3 307 309 308
3 308 309 310
3 309 311 310
3 310 311 312
3 311 313 312
3 312 313 314
3 313 315 314
3 314 315 316
3 315 317 316
3 316 317 318
3 317 319 318
3 307 304 320
3 321 320 304
3 302 321 304
3 321 302 300
3 322 321 300
3 322 300 298
3 323 322 298
3 315 313 324
3 324 313 325
3 313 311 325
3 325 311 326
3 311 309 326
3 326 309 327
3 327 307 320
3 309 307 327
3 323 298 296
3 328 323 296
3 328 296 295
3 329 328 295
3 329 295 330
3 295 293 330
3 330 293 331
3 293 291 331
3 331 291 332
3 291 288 332
3 333 332 288
3 287 333 288
3 333 287 334
3 335 333 334
3 335 334 336
3 337 336 334
3 167 337 334
3 167 334 287
3 337 338 336
3 338 339 336
3 338 340 339
3 340 341 339
3 340 342 341
3 342 343 341
3 342 344 343
3 344 345 343
3 344 346 345
3 346 347 345
3 346 348 347
3 348 349 347
3 350 347 349
3 351 350 349
3 352 345 347
3 350 352 347
3 353 343 345
3 352 353 345
3 354 341 343
3 353 354 343
3 355 339 341
3 354 355 341
3 351 356 350
3 356 357 350
3 350 357 358
3 352 350 358
3 352 358 359
3 353 352 359
3 353 359 360
3 354 353 360
3 354 360 361
3 355 354 361
3 355 361 362
3 363 355 362
3 355 363 339
3 363 336 339
3 363 335 336
3 363 362 364
3 335 363 364
3 335 364 365
3 333 335 365
3 333 365 332
3 365 366 332
3 332 366 331
3 366 367 331
3 331 367 330
3 367 368 330
3 330 368 329
3 368 369 329
3 329 369 370
3 328 329 370
3 328 370 371
3 323 328 371
3 323 371 372
3 322 323 372
3 322 372 373
3 321 322 373
3 321 373 320
3 373 374 320
3 320 374 327
3 374 375 327
3 327 375 326
3 375 376 326
3 326 376 325
3 376 377 325
3 325 377 324
3 377 378 324
3 324 378 379
3 379 315 324
3 317 315 379
3 380 317 379
3 319 317 380
3 381 319 380
3 378 382 379
3 379 382 380
3 382 383 380
3 380 383 381
3 383 384 381
3 384 383 385
3 386 384 385
3 387 386 385
3 385 388 387
3 383 382 388
3 385 383 388
3 388 389 387
3 382 378 389
3 388 382 389
3 389 390 387
3 389 378 390
3 390 391 387
3 387 391 392
3 390 377 391
3 378 377 390
3 377 376 391
3 391 376 392
3 376 375 392
3 392 375 393
3 394 392 393
3 393 395 394
3 395 396 394
3 394 396 397
3 394 397 398
3 398 399 394
3 395 393 374
3 375 374 393
3 373 395 374
3 395 373 372
3 396 395 372
3 396 372 371
3 397 396 371
3 397 371 370
3 398 397 370
3 398 370 369
3 399 398 369
3 400 399 369
3 399 400 401
3 400 402 401
3 402 403 401
3 403 404 401
3 404 405 401
3 401 405 406
3 368 400 369
3 400 368 402
3 368 367 402
3 402 367 403
3 367 366 403
3 403 366 404
3 366 365 404
3 404 365 364
3 405 404 364
3 405 364 362
3 406 405 362
3 406 362 361
3 407 406 361
3 408 406 407
3 408 407 409
3 408 409 410
3 410 411 408
3 408 411 412
3 408 412 413
3 407 361 360
3 409 407 360
3 409 360 359
3 410 409 359
3 410 359 358
3 411 410 358
3 411 358 357
3 412 411 357
3 413 412 357
3 356 413 357
3 156 414 157
3 156 415 414
3 415 416 414
3 415 417 416
3 417 418 416
3 417 419 418
3 419 420 418
3 421 417 415
3 422 421 415
3 422 415 156
3 154 422 156
3 422 154 141
3 422 141 140
3 421 422 140
3 417 421 423
3 419 417 423
3 424 423 421
3 140 424 421
3 139 424 140
3 342 414 416
3 344 342 416
3 344 416 418
3 346 344 418
3 346 418 420
3 348 346 420
3 342 340 414
3 340 157 414
3 340 338 157
3 338 158 157
3 161 158 338
3 337 161 338
3 161 337 163
3 337 167 163
3 166 167 287
3 166 289 165
3 289 168 165
3 289 290 168
3 290 170 168
3 290 292 170
3 292 172 170
3 172 292 174
3 292 294 174
3 294 297 174
3 297 177 174
3 297 299 177
3 299 179 177
3 299 301 179
3 301 180 179
3 301 303 180
3 303 182 180
3 182 303 185
3 303 305 185
3 187 185 305
3 306 187 305
3 189 187 306
3 308 189 306
3 191 189 308
3 310 191 308
3 193 191 310
3 312 193 310
3 195 193 312
3 314 195 312
3 196 195 314
3 316 196 314
3 316 318 196
3 318 198 196
3 107 240 244
3 106 107 244
3 107 116 240
3 106 244 425
3 426 425 244
3 426 84 425
3 84 85 425
3 83 84 426
3 427 83 426
3 82 83 427
3 81 82 427
3 425 85 93
3 93 106 425
3 85 86 93
3 427 245 81
3 245 247 81
3 79 81 247
3 251 79 247
3 79 251 80
3 251 253 80
3 428 80 253
3 428 76 80
3 75 76 428
3 429 75 428
3 74 75 429
3 430 74 429
3 72 74 430
3 431 72 430
3 73 72 431
3 432 73 431
3 431 267 432
3 267 268 432
3 431 430 269
3 267 431 269
3 430 429 270
3 269 430 270
3 429 428 271
3 270 429 271
3 271 428 253
3 233 215 214
3 218 233 214
3 233 176 215
3 176 178 215
3 216 215 178
3 181 216 178
3 181 183 216
3 183 209 216
3 210 209 183
3 184 210 183
3 200 210 184
3 242 239 217
3 213 242 217
3 249 242 213
3 211 249 213
3 249 211 250
3 211 207 250
3 255 250 207
3 205 255 207
3 255 205 256
3 205 204 256
3 258 256 204
3 219 217 239
3 43 44 433
3 50 43 433
3 50 433 137
3 133 50 137
3 133 132 50
3 132 49 50
3 132 123 49
3 123 47 49
3 123 121 47
3 121 46 47
3 121 120 46
3 120 45 46
3 120 125 45
3 125 48 45
3 125 112 48
3 112 51 48
3 112 97 51
3 97 52 51
3 427 426 243
3 245 427 243
3 243 426 244
3 437 436 438
3 435 444 443
3 435 434 444
3 445 446 447
3 446 448 447
3 447 448 449
3 448 450 449
3 449 451 447
3 447 452 445
3 453 441 442
3 456 457 455
3 458 459 457
3 460 462 461
3 464 466 465
3 466 467 465
3 466 468 467
3 468 469 467
3 468 470 469
3 470 468 463
3 470 471 469
3 465 467 438
3 467 439 438
3 467 469 439
3 469 440 439
3 457 454 455
